<mxfile host="app.diagrams.net" agent="Mozilla/5.0 (Windows NT 10.0; Win64; x64) AppleWebKit/537.36 (KHTML, like Gecko) Chrome/134.0.0.0 Safari/537.36" version="26.2.5">
  <diagram name="Page-1" id="19d8dcba-68ad-dc05-1034-9cf7b2a963f6">
    <mxGraphModel dx="497" dy="251" grid="1" gridSize="10" guides="1" tooltips="1" connect="1" arrows="1" fold="1" page="1" pageScale="1" pageWidth="1100" pageHeight="850" background="none" math="0" shadow="0">
      <root>
        <mxCell id="0" />
        <mxCell id="1" parent="0" />
        <mxCell id="2LfkLw7UMkRZDA_Cnnon-17" style="edgeStyle=orthogonalEdgeStyle;rounded=0;orthogonalLoop=1;jettySize=auto;html=1;exitX=0.5;exitY=1;exitDx=0;exitDy=0;entryX=0.5;entryY=0;entryDx=0;entryDy=0;" edge="1" parent="1" source="2LfkLw7UMkRZDA_Cnnon-1" target="2LfkLw7UMkRZDA_Cnnon-4">
          <mxGeometry relative="1" as="geometry" />
        </mxCell>
        <mxCell id="2LfkLw7UMkRZDA_Cnnon-1" value="Input" style="rounded=1;whiteSpace=wrap;html=1;fillColor=#fff2cc;strokeColor=#d6b656;" vertex="1" parent="1">
          <mxGeometry x="360" y="40" width="80" height="40" as="geometry" />
        </mxCell>
        <mxCell id="2LfkLw7UMkRZDA_Cnnon-2" value="Output" style="rounded=1;whiteSpace=wrap;html=1;fillColor=#d5e8d4;strokeColor=#82b366;" vertex="1" parent="1">
          <mxGeometry x="360" y="310" width="80" height="40" as="geometry" />
        </mxCell>
        <mxCell id="2LfkLw7UMkRZDA_Cnnon-4" value="Conv2D&amp;nbsp;&lt;span style=&quot;background-color: transparent; color: light-dark(rgb(0, 0, 0), rgb(255, 255, 255));&quot;&gt;8 (3х3)&lt;/span&gt;" style="rounded=1;whiteSpace=wrap;html=1;fillColor=#dae8fc;strokeColor=#6c8ebf;" vertex="1" parent="1">
          <mxGeometry x="300" y="100" width="200" height="30" as="geometry" />
        </mxCell>
        <mxCell id="2LfkLw7UMkRZDA_Cnnon-20" style="edgeStyle=orthogonalEdgeStyle;rounded=0;orthogonalLoop=1;jettySize=auto;html=1;entryX=0.5;entryY=0;entryDx=0;entryDy=0;" edge="1" parent="1" source="2LfkLw7UMkRZDA_Cnnon-5" target="2LfkLw7UMkRZDA_Cnnon-7">
          <mxGeometry relative="1" as="geometry" />
        </mxCell>
        <mxCell id="2LfkLw7UMkRZDA_Cnnon-5" value="MaxPooling2D&amp;nbsp;&lt;span style=&quot;background-color: transparent; color: light-dark(rgb(0, 0, 0), rgb(255, 255, 255));&quot;&gt;(2х2)&lt;/span&gt;" style="rounded=1;whiteSpace=wrap;html=1;fillColor=#e1d5e7;strokeColor=#9673a6;" vertex="1" parent="1">
          <mxGeometry x="300" y="130" width="200" height="20" as="geometry" />
        </mxCell>
        <mxCell id="2LfkLw7UMkRZDA_Cnnon-7" value="Conv2D&amp;nbsp;&lt;span style=&quot;background-color: transparent; color: light-dark(rgb(0, 0, 0), rgb(255, 255, 255));&quot;&gt;8 (3х3)&lt;/span&gt;" style="rounded=1;whiteSpace=wrap;html=1;fillColor=#dae8fc;strokeColor=#6c8ebf;" vertex="1" parent="1">
          <mxGeometry x="320" y="165" width="160" height="30" as="geometry" />
        </mxCell>
        <mxCell id="2LfkLw7UMkRZDA_Cnnon-57" style="edgeStyle=orthogonalEdgeStyle;rounded=0;orthogonalLoop=1;jettySize=auto;html=1;exitX=0.5;exitY=1;exitDx=0;exitDy=0;entryX=0.5;entryY=0;entryDx=0;entryDy=0;" edge="1" parent="1" source="2LfkLw7UMkRZDA_Cnnon-8" target="2LfkLw7UMkRZDA_Cnnon-24">
          <mxGeometry relative="1" as="geometry" />
        </mxCell>
        <mxCell id="2LfkLw7UMkRZDA_Cnnon-8" value="MaxPooling2D&amp;nbsp;&lt;span style=&quot;background-color: transparent; color: light-dark(rgb(0, 0, 0), rgb(255, 255, 255));&quot;&gt;(2х2)&lt;/span&gt;" style="rounded=1;whiteSpace=wrap;html=1;fillColor=#e1d5e7;strokeColor=#9673a6;" vertex="1" parent="1">
          <mxGeometry x="320" y="195" width="160" height="20" as="geometry" />
        </mxCell>
        <mxCell id="2LfkLw7UMkRZDA_Cnnon-59" style="edgeStyle=orthogonalEdgeStyle;rounded=0;orthogonalLoop=1;jettySize=auto;html=1;entryX=0.5;entryY=0;entryDx=0;entryDy=0;" edge="1" parent="1" source="2LfkLw7UMkRZDA_Cnnon-24" target="2LfkLw7UMkRZDA_Cnnon-58">
          <mxGeometry relative="1" as="geometry" />
        </mxCell>
        <mxCell id="2LfkLw7UMkRZDA_Cnnon-24" value="Flatten" style="rounded=1;whiteSpace=wrap;html=1;fillColor=#ffe6cc;strokeColor=#d79b00;" vertex="1" parent="1">
          <mxGeometry x="280" y="230" width="240" height="20" as="geometry" />
        </mxCell>
        <mxCell id="2LfkLw7UMkRZDA_Cnnon-47" value="`" style="text;html=1;align=center;verticalAlign=middle;resizable=0;points=[];autosize=1;strokeColor=none;fillColor=none;" vertex="1" parent="1">
          <mxGeometry x="255" y="198" width="30" height="30" as="geometry" />
        </mxCell>
        <mxCell id="2LfkLw7UMkRZDA_Cnnon-60" style="edgeStyle=orthogonalEdgeStyle;rounded=0;orthogonalLoop=1;jettySize=auto;html=1;entryX=0.5;entryY=0;entryDx=0;entryDy=0;" edge="1" parent="1" source="2LfkLw7UMkRZDA_Cnnon-58" target="2LfkLw7UMkRZDA_Cnnon-2">
          <mxGeometry relative="1" as="geometry" />
        </mxCell>
        <mxCell id="2LfkLw7UMkRZDA_Cnnon-58" value="Dense (softmax)" style="rounded=1;whiteSpace=wrap;html=1;fillColor=#f8cecc;strokeColor=#b85450;" vertex="1" parent="1">
          <mxGeometry x="345" y="270" width="110" height="20" as="geometry" />
        </mxCell>
      </root>
    </mxGraphModel>
  </diagram>
</mxfile>
